Results
version=1
nRows=18
nColumns=38
inDegrees=yes
endheader
time	pelvis_tilt	pelvis_list	pelvis_rotation	pelvis_tx	pelvis_ty	pelvis_tz	hip_flexion_r	hip_adduction_r	hip_rotation_r	knee_angle_r	ankle_angle_r	subtalar_angle_r	mtp_angle_r	hip_flexion_l	hip_adduction_l	hip_rotation_l	knee_angle_l	ankle_angle_l	subtalar_angle_l	mtp_angle_l	lumbar_extension	lumbar_bending	lumbar_rotation	arm_flex_r	arm_add_r	arm_rot_r	elbow_flex_r	pro_sup_r	wrist_flex_r	wrist_dev_r	arm_flex_l	arm_add_l	arm_rot_l	elbow_flex_l	pro_sup_l	wrist_flex_l	wrist_dev_l
      7.50000000	      0.84412285	     -2.55879259	     -4.45869819	      0.92456994	      1.04178444	     -0.25939146	      1.39530827	      6.37980742	      3.61721846	    -32.91734282	     25.70344261	      0.00000000	      0.00000000	     14.60070171	      0.28430439	      3.25871883	    -71.80997238	     10.61844505	      0.00000000	      0.00000000	     -9.16203182	      4.19624000	     12.78988854	    -17.57628959	    -27.06752275	     -7.51577756	    116.75779534	     62.44964851	      0.00000000	      0.00000000	    -36.86709950	     -9.26842311	     -7.32878502	    121.62709677	     64.49061095	      0.00000000	      0.00000000
      7.50400000	      0.59632215	     -2.29194493	     -4.52636450	      0.92462486	      1.04401169	     -0.25951370	      0.68601888	      6.01414711	      3.81606950	    -31.91029124	     24.96481458	      0.00000000	      0.00000000	     15.22584965	      0.53436618	      3.19439514	    -70.80005323	     10.96421360	      0.00000000	      0.00000000	     -8.82079055	      3.88108047	     13.20613942	    -17.45395019	    -27.10311923	     -7.47103783	    117.15725226	     62.46798770	      0.00000000	      0.00000000	    -37.32766810	     -9.20934172	     -7.32379805	    121.86830135	     64.48433228	      0.00000000	      0.00000000
      7.50800000	      0.34265240	     -2.01820489	     -4.58057124	      0.92472124	      1.04630117	     -0.25962131	      0.00157517	      5.64707717	      3.97243782	    -30.91087939	     24.21956592	      0.00000000	      0.00000000	     15.81796834	      0.74528044	      3.07449332	    -69.68869928	     11.33088063	      0.00000000	      0.00000000	     -8.49140371	      3.54647150	     13.58821576	    -17.36179640	    -27.14010390	     -7.36810453	    117.54497708	     62.48905357	      0.00000000	      0.00000000	    -37.78362177	     -9.10087163	     -7.36874037	    122.11415160	     64.47048491	      0.00000000	      0.00000000
      7.51200000	      0.24185437	     -1.66369520	     -4.70468618	      0.92495848	      1.04895139	     -0.25971948	     -0.82372879	      5.16946677	      4.20151018	    -29.93980662	     23.43500351	      0.00000000	      0.00000000	     16.18347663	      1.04830750	      2.82759129	    -68.40684857	     11.51905679	      0.00000000	      0.00000000	     -8.29352477	      3.13029462	     14.00577777	    -17.24655756	    -27.20678464	     -7.26305336	    117.96334405	     62.51209403	      0.00000000	      0.00000000	    -38.22628470	     -8.99150341	     -7.48455917	    122.36522503	     64.36002819	      0.00000000	      0.00000000
      7.51600000	     -0.06550220	     -1.42804083	     -4.68199528	      0.92514538	      1.05131005	     -0.25992932	     -1.42373531	      4.83158874	      4.23594105	    -28.96235716	     22.48678950	      0.00000000	      0.00000000	     16.79464426	      1.27503181	      2.83813694	    -67.23503364	     11.72021666	      0.00000000	      0.00000000	     -7.87838412	      2.87867875	     14.27368825	    -17.18872641	    -27.21482468	     -7.15801513	    118.34309253	     62.54637057	      0.00000000	      0.00000000	    -38.70009266	     -8.93788685	     -7.51635679	    122.57020061	     64.34244010	      0.00000000	      0.00000000
      7.52000000	     -0.35689178	     -1.15092349	     -4.65170699	      0.92539515	      1.05369740	     -0.26034311	     -2.02716763	      4.44983717	      4.30161035	    -28.01139683	     21.50076729	      0.00000000	      0.00000000	     17.34876438	      1.58822039	      2.87361967	    -65.91390953	     11.76162781	      0.00000000	      0.00000000	     -7.46436815	      2.58960004	     14.51175368	    -17.12485081	    -27.25007335	     -7.03923443	    118.74056112	     62.59027256	      0.00000000	      0.00000000	    -39.18012431	     -8.84055474	     -7.55685630	    122.77081894	     64.31653162	      0.00000000	      0.00000000
      7.52400000	     -0.64908907	     -0.83953814	     -4.62908919	      0.92563810	      1.05611788	     -0.26071462	     -2.58880180	      4.01666950	      4.29609253	    -27.09694438	     20.48001497	      0.00000000	      0.00000000	     17.84402574	      1.92409164	      2.89153397	    -64.48986561	     11.92011587	      0.00000000	      0.00000000	     -7.06684785	      2.24132481	     14.72522574	    -17.05501337	    -27.28756166	     -6.87864142	    119.11576321	     62.63703415	      0.00000000	      0.00000000	    -39.65412210	     -8.73875410	     -7.63049848	    122.95822146	     64.27387205	      0.00000000	      0.00000000
      7.52800000	     -0.89263240	     -0.54969984	     -4.59929880	      0.92593243	      1.05863685	     -0.26107732	     -3.19087584	      3.60506369	      4.25111022	    -26.21247332	     19.39992146	      0.00000000	      0.00000000	     18.28809850	      2.20134403	      2.83244531	    -63.04288307	     11.92861703	      0.00000000	      0.00000000	     -6.71272095	      1.91876237	     14.88994051	    -16.94357065	    -27.32708808	     -6.66704546	    119.48787046	     62.69846796	      0.00000000	      0.00000000	    -40.11930505	     -8.60694025	     -7.74816511	    123.16002513	     64.20930724	      0.00000000	      0.00000000
      7.53200000	     -1.18908364	     -0.28938715	     -4.52167385	      0.92630284	      1.06104604	     -0.26148494	     -3.72509356	      3.22872970	      4.11939048	    -25.33901257	     18.29846807	      0.00000000	      0.00000000	     18.77944244	      2.44459669	      2.77234517	    -61.59283227	     11.87430276	      0.00000000	      0.00000000	     -6.30502302	      1.62904707	     15.00260194	    -16.88116556	    -27.34092169	     -6.45835605	    119.83432078	     62.76458142	      0.00000000	      0.00000000	    -40.60767639	     -8.48685788	     -7.84628735	    123.34446841	     64.15012622	      0.00000000	      0.00000000
      7.53600000	     -1.49777764	     -0.07896135	     -4.44709033	      0.92673112	      1.06342500	     -0.26184734	     -4.26556772	      2.90982805	      3.97138662	    -24.42487025	     17.15560144	      0.00000000	      0.00000000	     19.22483274	      2.64130164	      2.75859624	    -60.04943935	     11.83362003	      0.00000000	      0.00000000	     -5.87658603	      1.38801117	     15.10320296	    -16.86833459	    -27.38175694	     -6.27693684	    120.17464286	     62.82611112	      0.00000000	      0.00000000	    -41.11003752	     -8.34725867	     -7.92791330	    123.52966564	     64.11654710	      0.00000000	      0.00000000
      7.54000000	     -1.79151007	      0.15611576	     -4.35255551	      0.92712850	      1.06584648	     -0.26224354	     -4.78667140	      2.56618273	      3.83242896	    -23.55912169	     15.92302612	      0.00000000	      0.00000000	     19.61247455	      2.87990710	      2.81034472	    -58.42967814	     11.88062064	      0.00000000	      0.00000000	     -5.46605704	      1.13153924	     15.19309027	    -16.81885668	    -27.37882191	     -6.03214300	    120.43703485	     62.90830601	      0.00000000	      0.00000000	    -41.54917947	     -8.23440422	     -8.04243284	    123.70359083	     64.07073192	      0.00000000	      0.00000000
      7.54400000	     -2.03248512	      0.38730966	     -4.24562810	      0.92748175	      1.06830337	     -0.26263083	     -5.33125071	      2.21428093	      3.53111581	    -22.72272665	     14.65075724	      0.00000000	      0.00000000	     19.93058293	      3.12011632	      2.82924869	    -56.74610412	     11.83992085	      0.00000000	      0.00000000	     -5.13723678	      0.84887291	     15.20106400	    -16.74229277	    -27.42915808	     -5.76219923	    120.85504197	     62.99738604	      0.00000000	      0.00000000	    -42.00522037	     -8.05488589	     -8.23406918	    123.85330728	     63.99299164	      0.00000000	      0.00000000
      7.54800000	     -2.31215157	      0.53916754	     -4.11483156	      0.92803057	      1.07063090	     -0.26301391	     -5.85933807	      1.96808194	      3.31141259	    -21.88196507	     13.33405397	      0.00000000	      0.00000000	     20.23310439	      3.24511243	      2.83983939	    -55.00184947	     11.80105857	      0.00000000	      0.00000000	     -4.74179351	      0.67734903	     15.21666781	    -16.73802374	    -27.47798331	     -5.43808788	    121.08466304	     63.09574553	      0.00000000	      0.00000000	    -42.45377862	     -7.92173702	     -8.34575583	    123.98599698	     63.94597542	      0.00000000	      0.00000000
      7.55200000	     -2.61151551	      0.74990968	     -4.04137591	      0.92847153	      1.07294099	     -0.26349344	     -6.32170336	      1.63023678	      3.00205746	    -21.05150488	     12.04554403	      0.00000000	      0.00000000	     20.54132861	      3.49756923	      2.92098665	    -53.21324417	     11.81518159	      0.00000000	      0.00000000	     -4.33690538	      0.45179886	     15.22692622	    -16.72606520	    -27.52192020	     -5.23365827	    121.52184924	     63.17250448	      0.00000000	      0.00000000	    -42.92827430	     -7.72906852	     -8.44691546	    124.12199920	     63.91688364	      0.00000000	      0.00000000
      7.55600000	     -2.59980885	      0.99387510	     -3.80643473	      0.92911317	      1.07569270	     -0.26407423	     -7.14641819	      1.26433975	      2.48460140	    -20.20171487	     10.61507143	      0.00000000	      0.00000000	     20.46328713	      3.84558933	      3.11633807	    -51.28807677	     11.61588714	      0.00000000	      0.00000000	     -4.26170613	      0.14182036	     14.94760378	    -16.44022508	    -27.64414197	     -4.52948600	    121.65185724	     63.50095046	      0.00000000	      0.00000000	    -43.36328462	     -7.43323543	     -8.83592417	    124.33378295	     63.68294940	      0.00000000	      0.00000000
      7.56000000	     -2.93950484	      1.12766848	     -3.72950650	      0.92955911	      1.07780563	     -0.26439392	     -7.50778791	      1.03381373	      2.20106878	    -19.48694679	      9.31812816	      0.00000000	      0.00000000	     20.76248217	      3.97092910	      3.14803601	    -49.41473030	     11.55113283	      0.00000000	      0.00000000	     -3.81855807	     -0.00348968	     15.00311073	    -16.55593049	    -27.64894223	     -4.37873254	    122.00917681	     63.58238227	      0.00000000	      0.00000000	    -43.76052193	     -7.30757541	     -8.93709064	    124.45405285	     63.65136417	      0.00000000	      0.00000000
      7.56400000	     -3.25613621	      1.28644738	     -3.65341832	      0.93008406	      1.07974750	     -0.26482170	     -7.86696341	      0.78045285	      1.78621062	    -18.80504155	      7.98909923	      0.00000000	      0.00000000	     20.98988924	      4.15866708	      3.22556055	    -47.44757147	     11.47721866	      0.00000000	      0.00000000	     -3.39010934	     -0.16535222	     15.05658677	    -16.64996183	    -27.64914633	     -4.11468579	    122.34418847	     63.68294633	      0.00000000	      0.00000000	    -44.14521683	     -7.18568625	     -8.99767209	    124.57759241	     63.63951040	      0.00000000	      0.00000000
      7.56800000	     -3.46557290	      1.46279380	     -3.50101856	      0.93058558	      1.08189858	     -0.26529710	     -8.33167321	      0.50228771	      1.32302845	    -18.14554720	      6.54309046	      0.00000000	      0.00000000	     21.09021862	      4.38967652	      3.43238959	    -45.48841904	     11.32443552	      0.00000000	      0.00000000	     -3.09395332	     -0.36848191	     14.98488410	    -16.69002789	    -27.68452538	     -3.80107116	    122.59796196	     63.80896440	      0.00000000	      0.00000000	    -44.46880161	     -7.06762754	     -9.15967646	    124.65019751	     63.60670955	      0.00000000	      0.00000000
